<svg xmlns="http://www.w3.org/2000/svg" version="1.1" xmlns:xlink="http://www.w3.org/1999/xlink" xmlns:svgjs="http://svgjs.com/svgjs" width="1440" height="560" preserveAspectRatio="none" viewBox="0 0 1440 560"><g mask="url(&quot;#SvgjsMask1109&quot;)" fill="none"><rect width="1440" height="560" x="0" y="0" fill="rgba(243, 244, 246, 1)"></rect><path d="M0,335.21C70.436,347.834,153.981,371.339,210.168,327.027C266.925,282.265,234.009,186.082,269.172,122.927C309.257,50.934,415.35,20.353,426.385,-61.305C437.413,-142.911,384.911,-225.405,323.687,-280.476C265.093,-333.181,182.137,-351.847,103.326,-351.896C35.648,-351.938,-16.238,-294.834,-82.429,-280.727C-156.86,-264.863,-241.181,-305.367,-305.541,-264.753C-373.971,-221.57,-435.966,-142.396,-429.44,-61.744C-422.77,20.687,-326.348,61.11,-273.994,125.129C-236.97,170.402,-213.165,223.887,-166.753,259.473C-117.304,297.387,-61.334,324.217,0,335.21" fill="#dde0e5"></path><path d="M1440 1187.5439999999999C1554.698 1174.399 1638.005 1080.684 1728.784 1009.356 1811.0729999999999 944.6990000000001 1892.771 881.3009999999999 1945.099 790.671 2001.228 693.458 2046.08 585.993 2037.866 474.04 2029.37 358.235 1981.6280000000002 243.856 1898.996 162.27800000000002 1819.036 83.33800000000002 1705.364 50.16699999999997 1593.929 35.764999999999986 1493.543 22.791000000000054 1401.307 75.719 1300.506 84.928 1167.232 97.10399999999998 1009.3589999999999 11.817000000000007 907.386 98.48700000000002 808.573 182.471 827.403 345.321 842.609 474.108 855.631 584.398 942.2149999999999 665.265 986.341 767.179 1031.685 871.906 1021.585 1003.246 1105.295 1080.812 1192.967 1162.05 1321.253 1201.153 1440 1187.5439999999999" fill="#ffffff"></path></g><defs><mask id="SvgjsMask1109"><rect width="1440" height="560" fill="#ffffff"></rect></mask></defs></svg>